<svg width="309" height="30" viewBox="0 0 309 30" fill="none" xmlns="http://www.w3.org/2000/svg">
<rect width="309" height="30" fill="#0F172A"/>
<path d="M1.25 0.429688H5.9375C7.22656 0.429688 8.52214 0.442708 9.82422 0.46875C11.1393 0.494792 12.3958 0.546875 13.5938 0.625C14.8047 0.690104 15.918 0.78125 16.9336 0.898438C17.9492 1.01562 18.8021 1.16536 19.4922 1.34766C20.5078 1.64714 21.4518 2.11589 22.3242 2.75391C23.2096 3.39193 24.0299 4.14062 24.7852 5C25.0846 5.35156 25.4167 5.82682 25.7812 6.42578C26.1589 7.01172 26.5104 7.6888 26.8359 8.45703C27.1745 9.22526 27.4544 10.0586 27.6758 10.957C27.8971 11.8555 28.0078 12.7865 28.0078 13.75C28.0078 16.0286 27.5781 18.0859 26.7188 19.9219C25.8724 21.7448 24.6419 23.4245 23.0273 24.9609C22.9492 25 22.832 25.0781 22.6758 25.1953C22.5326 25.3125 22.3763 25.4427 22.207 25.5859C22.0378 25.7161 21.875 25.8398 21.7188 25.957C21.5755 26.0742 21.4714 26.1589 21.4062 26.2109C21.1068 26.4583 20.7357 26.6927 20.293 26.9141C19.8633 27.1354 19.388 27.3372 18.8672 27.5195C18.3464 27.7018 17.7995 27.8711 17.2266 28.0273C16.6667 28.1836 16.1133 28.3138 15.5664 28.418C15.0195 28.5221 14.5052 28.6003 14.0234 28.6523C13.5417 28.7174 13.125 28.75 12.7734 28.75C12.2656 28.75 11.7448 28.724 11.2109 28.6719C10.6771 28.6328 10.0586 28.6133 9.35547 28.6133H0.625C0.208333 28.6133 0 28.4766 0 28.2031C0 28.0469 0.136719 27.9232 0.410156 27.832C0.683594 27.7279 1.01562 27.6497 1.40625 27.5977C1.79688 27.5326 2.21354 27.4805 2.65625 27.4414C3.09896 27.3893 3.49609 27.3307 3.84766 27.2656C4.10807 27.2135 4.30339 27.1419 4.43359 27.0508C4.57682 26.9466 4.67448 26.8359 4.72656 26.7188C4.79167 26.4453 4.83073 26.2305 4.84375 26.0742C4.85677 25.9049 4.86328 25.7161 4.86328 25.5078V1.75781C4.82422 1.66667 4.65495 1.58203 4.35547 1.50391C4.06901 1.42578 3.71745 1.35417 3.30078 1.28906C2.89714 1.22396 2.46094 1.15885 1.99219 1.09375C1.52344 1.02865 1.09375 0.963542 0.703125 0.898438C0.494792 0.872396 0.390625 0.807292 0.390625 0.703125C0.390625 0.677083 0.46224 0.611979 0.605469 0.507812C0.657552 0.481771 0.729167 0.46224 0.820312 0.449219C0.924479 0.436198 1.06771 0.429688 1.25 0.429688ZM9.35547 1.85547V12.832C9.35547 13.6263 9.32943 14.3945 9.27734 15.1367C9.23828 15.8659 9.19271 16.582 9.14062 17.2852C9.10156 17.9883 9.05599 18.6914 9.00391 19.3945C8.96484 20.0846 8.94531 20.7943 8.94531 21.5234C8.94531 23.1641 9.03646 24.4271 9.21875 25.3125C9.41406 26.1849 9.68099 26.8099 10.0195 27.1875C10.1758 27.3958 10.3971 27.5326 10.6836 27.5977C10.9831 27.6497 11.25 27.6758 11.4844 27.6758C12.5 27.6758 13.4635 27.5456 14.375 27.2852C15.2865 27.0247 16.1263 26.6667 16.8945 26.2109C17.6758 25.7552 18.3724 25.2214 18.9844 24.6094C19.6094 23.9974 20.1367 23.3398 20.5664 22.6367C21.4648 21.1914 22.1354 19.7396 22.5781 18.2812C23.0208 16.8099 23.2422 15.4102 23.2422 14.082C23.2422 13.3529 23.1836 12.6562 23.0664 11.9922C22.9622 11.3281 22.832 10.7161 22.6758 10.1562C22.5195 9.59635 22.3503 9.10156 22.168 8.67188C21.9857 8.24219 21.8229 7.90365 21.6797 7.65625C21.4844 7.30469 21.2109 6.88151 20.8594 6.38672C20.5078 5.87891 20.0521 5.35807 19.4922 4.82422C18.9453 4.27734 18.2747 3.75 17.4805 3.24219C16.6862 2.72135 15.7422 2.27214 14.6484 1.89453C13.9714 1.64714 13.2943 1.47786 12.6172 1.38672C11.9401 1.29557 11.1979 1.25 10.3906 1.25C10.3125 1.25 10.2083 1.25651 10.0781 1.26953C9.96094 1.28255 9.85026 1.30859 9.74609 1.34766C9.64193 1.38672 9.55078 1.45182 9.47266 1.54297C9.39453 1.62109 9.35547 1.72526 9.35547 1.85547ZM66.8438 2.79297C66.8438 2.40234 66.7005 2.08984 66.4141 1.85547C66.1276 1.62109 65.776 1.4388 65.3594 1.30859C64.9427 1.16536 64.5 1.06771 64.0312 1.01562C63.5625 0.963542 63.1458 0.924479 62.7812 0.898438C62.6901 0.898438 62.6055 0.891927 62.5273 0.878906C62.4492 0.852865 62.4102 0.78125 62.4102 0.664062C62.4102 0.585938 62.4427 0.520833 62.5078 0.46875C62.5729 0.416667 62.651 0.377604 62.7422 0.351562C62.8333 0.3125 62.9245 0.292969 63.0156 0.292969C63.1068 0.279948 63.1849 0.273438 63.25 0.273438C63.3411 0.273438 63.5365 0.279948 63.8359 0.292969C64.1354 0.292969 64.5065 0.299479 64.9492 0.3125C65.3919 0.3125 65.8802 0.31901 66.4141 0.332031C66.9609 0.332031 67.5273 0.332031 68.1133 0.332031C69.1159 0.332031 69.9753 0.31901 70.6914 0.292969C71.4206 0.253906 72.0781 0.214844 72.6641 0.175781C73.263 0.123698 73.8294 0.0846354 74.3633 0.0585938C74.9102 0.0195312 75.4961 0 76.1211 0C76.3685 0 76.5833 0 76.7656 0C76.9609 0 77.1562 0 77.3516 0C77.5469 0 77.7617 0.00651042 77.9961 0.0195312C78.2435 0.0195312 78.5365 0.0260417 78.875 0.0390625C79.2266 0.0520833 79.6497 0.0651042 80.1445 0.078125C80.6523 0.0911458 81.2643 0.110677 81.9805 0.136719C82.1237 0.14974 82.2474 0.201823 82.3516 0.292969C82.4557 0.384115 82.5208 0.501302 82.5469 0.644531C82.5729 1.54297 82.5924 2.40234 82.6055 3.22266C82.6315 4.02995 82.6445 4.88932 82.6445 5.80078C82.6445 6.00911 82.612 6.11328 82.5469 6.11328C82.5208 6.11328 82.4818 6.10677 82.4297 6.09375C82.3776 6.08073 82.3385 6.04167 82.3125 5.97656C82.2083 5.76823 82.0977 5.54036 81.9805 5.29297C81.8633 5.04557 81.7396 4.79818 81.6094 4.55078C81.4922 4.29036 81.3685 4.04297 81.2383 3.80859C81.1211 3.57422 81.0039 3.3724 80.8867 3.20312C80.7174 2.95573 80.4961 2.70182 80.2227 2.44141C79.9492 2.16797 79.6432 1.92057 79.3047 1.69922C78.9661 1.47786 78.6016 1.29557 78.2109 1.15234C77.8333 1.00911 77.4557 0.924479 77.0781 0.898438C76.8438 0.898438 76.6354 0.898438 76.4531 0.898438C76.2839 0.885417 76.1146 0.878906 75.9453 0.878906C75.776 0.878906 75.6003 0.878906 75.418 0.878906C75.2357 0.878906 75.0208 0.878906 74.7734 0.878906C74.2656 0.878906 73.7383 0.891927 73.1914 0.917969C72.6576 0.94401 72.1367 1.00911 71.6289 1.11328C71.5117 1.13932 71.3945 1.17839 71.2773 1.23047C71.1602 1.26953 71.1016 1.3737 71.1016 1.54297V13.75C71.1276 13.9193 71.2188 14.0299 71.375 14.082C72.1172 14.0169 72.9049 13.9648 73.7383 13.9258C74.5846 13.8737 75.3789 13.8477 76.1211 13.8477C76.4857 13.8216 76.8112 13.7044 77.0977 13.4961C77.3971 13.2747 77.6576 13.0143 77.8789 12.7148C78.1003 12.4023 78.2956 12.0638 78.4648 11.6992C78.6341 11.3216 78.7839 10.957 78.9141 10.6055C79.0443 10.2539 79.1549 9.94141 79.2461 9.66797C79.3503 9.38151 79.4479 9.16667 79.5391 9.02344C79.5781 8.95833 79.6172 8.91927 79.6562 8.90625C79.6953 8.89323 79.806 8.88672 79.9883 8.88672C80.0664 8.88672 80.1445 8.90625 80.2227 8.94531C80.3138 8.97135 80.3594 9.01693 80.3594 9.08203C80.3594 9.55078 80.3398 9.96745 80.3008 10.332C80.2747 10.6966 80.2422 11.0221 80.2031 11.3086C80.1641 11.5951 80.125 11.862 80.0859 12.1094C80.0599 12.3438 80.0469 12.5716 80.0469 12.793V20.0977C80.0208 20.1367 79.9883 20.1693 79.9492 20.1953C79.8841 20.2604 79.819 20.293 79.7539 20.293C79.6497 20.293 79.5456 20.2018 79.4414 20.0195C79.3503 19.8242 79.2526 19.5833 79.1484 19.2969C79.0573 19.0104 78.9596 18.6914 78.8555 18.3398C78.7643 17.9883 78.6602 17.6432 78.543 17.3047C78.4388 16.9661 78.3216 16.6602 78.1914 16.3867C78.0742 16.1133 77.9375 15.9115 77.7812 15.7812C77.638 15.6641 77.4297 15.5599 77.1562 15.4688C76.8828 15.3776 76.5703 15.306 76.2188 15.2539C75.8802 15.2018 75.5156 15.1628 75.125 15.1367C74.7344 15.0977 74.3568 15.0716 73.9922 15.0586C73.6406 15.0456 73.3086 15.0391 72.9961 15.0391C72.6836 15.0391 72.4362 15.0391 72.2539 15.0391C71.9674 15.0391 71.7396 15.0586 71.5703 15.0977C71.4141 15.1237 71.2904 15.1888 71.1992 15.293C71.1211 15.3971 71.069 15.5469 71.043 15.7422C71.0169 15.9375 71.0039 16.2044 71.0039 16.543V24.4141C71.0039 24.7917 71.0234 25.1237 71.0625 25.4102C71.1016 25.6966 71.1667 25.9505 71.2578 26.1719C71.362 26.3802 71.4922 26.569 71.6484 26.7383C71.8177 26.8945 72.0195 27.0443 72.2539 27.1875C72.4362 27.2917 72.638 27.3958 72.8594 27.5C73.0938 27.5911 73.3086 27.6367 73.5039 27.6367H76.5703C76.8698 27.6367 77.1367 27.6367 77.3711 27.6367C77.6185 27.6237 77.8659 27.6107 78.1133 27.5977C78.3607 27.5716 78.6211 27.5391 78.8945 27.5C79.168 27.4479 79.487 27.3828 79.8516 27.3047C80.2422 27.2135 80.6068 27.0573 80.9453 26.8359C81.2839 26.6146 81.6029 26.3477 81.9023 26.0352C82.2148 25.7227 82.5078 25.3711 82.7812 24.9805C83.0547 24.5898 83.3151 24.1797 83.5625 23.75C83.6016 23.6849 83.6732 23.5482 83.7773 23.3398C83.8815 23.1185 83.9922 22.9492 84.1094 22.832C84.1224 22.806 84.1549 22.793 84.207 22.793C84.2591 22.793 84.3047 22.8385 84.3438 22.9297C84.4349 23.099 84.4805 23.4375 84.4805 23.9453C84.4805 24.1016 84.4349 24.3424 84.3438 24.668C84.2526 24.9805 84.1745 25.2799 84.1094 25.5664C84.0443 25.8008 83.9922 26.0938 83.9531 26.4453C83.9141 26.7969 83.862 27.1419 83.7969 27.4805C83.7318 27.806 83.6341 28.0859 83.5039 28.3203C83.3867 28.5547 83.224 28.6719 83.0156 28.6719C82.9375 28.6719 82.8724 28.6654 82.8203 28.6523C82.7682 28.6523 82.7227 28.6523 82.6836 28.6523C82.6445 28.6263 82.5339 28.6133 82.3516 28.6133H67.957C67.6576 28.6133 67.293 28.6198 66.8633 28.6328C66.4466 28.6589 66.0234 28.6784 65.5938 28.6914C65.1641 28.7174 64.7539 28.737 64.3633 28.75C63.9857 28.776 63.6862 28.7891 63.4648 28.7891H62.918C62.7747 28.7891 62.6315 28.7565 62.4883 28.6914C62.3451 28.6393 62.2734 28.5482 62.2734 28.418C62.2734 28.3008 62.2865 28.1836 62.3125 28.0664C62.3516 27.9492 62.4297 27.8581 62.5469 27.793C62.5729 27.7799 62.6315 27.7669 62.7227 27.7539C62.8268 27.7409 62.9375 27.7279 63.0547 27.7148C63.1719 27.7018 63.2826 27.6953 63.3867 27.6953C63.4909 27.6823 63.569 27.6758 63.6211 27.6758C63.9336 27.6497 64.194 27.6302 64.4023 27.6172C64.6107 27.5911 64.8581 27.526 65.1445 27.4219C65.7044 27.2526 66.1276 27.0312 66.4141 26.7578C66.7005 26.4714 66.8438 26.0221 66.8438 25.4102V2.79297ZM123.141 26.9922V13.3008C123.141 12.8971 123.154 12.3438 123.18 11.6406C123.206 10.9245 123.238 10.1562 123.277 9.33594C123.316 8.51562 123.349 7.68229 123.375 6.83594C123.401 5.98958 123.414 5.22786 123.414 4.55078C123.414 3.63932 123.375 2.97526 123.297 2.55859C123.271 2.3112 123.167 2.11589 122.984 1.97266C122.815 1.81641 122.6 1.69922 122.34 1.62109C122.092 1.52995 121.806 1.47135 121.48 1.44531C121.168 1.40625 120.862 1.3737 120.562 1.34766C120.276 1.30859 120.003 1.27604 119.742 1.25C119.495 1.21094 119.299 1.15234 119.156 1.07422C118.987 0.983073 118.902 0.872396 118.902 0.742188C118.902 0.638021 118.909 0.566406 118.922 0.527344C118.948 0.488281 118.987 0.455729 119.039 0.429688C119.195 0.377604 119.345 0.345052 119.488 0.332031C119.645 0.30599 119.781 0.292969 119.898 0.292969H120.641C121.227 0.292969 121.728 0.30599 122.145 0.332031C122.574 0.345052 122.971 0.371094 123.336 0.410156C123.701 0.436198 124.059 0.46224 124.41 0.488281C124.762 0.501302 125.159 0.507812 125.602 0.507812C126.083 0.507812 126.526 0.481771 126.93 0.429688C127.346 0.377604 127.737 0.31901 128.102 0.253906C128.479 0.188802 128.837 0.130208 129.176 0.078125C129.527 0.0260417 129.879 0 130.23 0H130.934C131.077 0 131.233 0.0130208 131.402 0.0390625C131.572 0.0651042 131.656 0.16276 131.656 0.332031C131.656 0.553385 131.507 0.709635 131.207 0.800781C130.986 0.865885 130.725 0.924479 130.426 0.976562C130.139 1.01562 129.814 1.10677 129.449 1.25C129.111 1.32812 128.831 1.41276 128.609 1.50391C128.401 1.59505 128.245 1.66667 128.141 1.71875C127.997 1.8099 127.867 1.92708 127.75 2.07031C127.646 2.21354 127.594 2.42188 127.594 2.69531V26.25C127.594 26.5365 127.672 26.7578 127.828 26.9141C127.984 27.0703 128.18 27.1875 128.414 27.2656C128.661 27.3438 128.922 27.3893 129.195 27.4023C129.482 27.4154 129.749 27.4219 129.996 27.4219C130.283 27.4219 130.686 27.4089 131.207 27.3828C131.728 27.3568 132.275 27.3177 132.848 27.2656C133.421 27.2135 133.974 27.1484 134.508 27.0703C135.055 26.9792 135.497 26.875 135.836 26.7578C136.292 26.6016 136.708 26.4453 137.086 26.2891C137.477 26.1198 137.802 25.9115 138.062 25.6641C138.102 25.638 138.167 25.5859 138.258 25.5078C138.349 25.4167 138.447 25.3125 138.551 25.1953C138.668 25.0651 138.779 24.9284 138.883 24.7852C138.987 24.6419 139.078 24.4987 139.156 24.3555C139.234 24.2513 139.299 24.1602 139.352 24.082C139.417 24.0039 139.475 23.9388 139.527 23.8867C139.579 23.8216 139.645 23.7109 139.723 23.5547C139.801 23.3984 139.885 23.2227 139.977 23.0273C140.081 22.832 140.185 22.6367 140.289 22.4414C140.393 22.2331 140.497 22.0378 140.602 21.8555C140.693 21.7383 140.777 21.6406 140.855 21.5625C140.947 21.4844 141.064 21.4453 141.207 21.4453C141.35 21.4453 141.428 21.5299 141.441 21.6992C141.467 21.8555 141.48 22.0117 141.48 22.168C141.48 22.4805 141.441 22.7995 141.363 23.125C141.298 23.4375 141.22 23.75 141.129 24.0625C141.038 24.375 140.94 24.6875 140.836 25C140.732 25.3125 140.654 25.625 140.602 25.9375C140.536 26.237 140.491 26.5495 140.465 26.875C140.452 27.1875 140.419 27.4805 140.367 27.7539C140.328 28.0143 140.243 28.2292 140.113 28.3984C139.996 28.5677 139.801 28.6523 139.527 28.6523H126.168C125.361 28.6523 124.684 28.6654 124.137 28.6914C123.603 28.7305 123.115 28.7695 122.672 28.8086C122.229 28.8607 121.786 28.8997 121.344 28.9258C120.914 28.9648 120.406 28.9844 119.82 28.9844C119.599 28.9844 119.41 28.9648 119.254 28.9258C119.111 28.8867 118.993 28.7826 118.902 28.6133C118.889 28.5612 118.876 28.5221 118.863 28.4961C118.85 28.4701 118.844 28.3854 118.844 28.2422C118.844 28.0729 118.915 27.9557 119.059 27.8906C119.215 27.8125 119.332 27.7604 119.41 27.7344C119.553 27.7083 119.768 27.6953 120.055 27.6953C120.341 27.6823 120.602 27.6628 120.836 27.6367C120.953 27.6237 121.103 27.6042 121.285 27.5781C121.467 27.5521 121.663 27.513 121.871 27.4609C122.092 27.4089 122.314 27.3438 122.535 27.2656C122.757 27.1875 122.958 27.0964 123.141 26.9922ZM179.223 25.7812V3.76953C179.223 3.22266 179.125 2.8125 178.93 2.53906C178.734 2.2526 178.487 2.05078 178.188 1.93359C177.901 1.80339 177.589 1.73177 177.25 1.71875C176.911 1.70573 176.592 1.69271 176.293 1.67969C176.007 1.65365 175.766 1.60156 175.57 1.52344C175.375 1.44531 175.277 1.28255 175.277 1.03516C175.277 0.865885 175.355 0.761719 175.512 0.722656C175.681 0.670573 175.837 0.644531 175.98 0.644531H177.074C177.4 0.644531 177.693 0.657552 177.953 0.683594C178.227 0.696615 178.48 0.716146 178.715 0.742188C178.962 0.768229 179.21 0.794271 179.457 0.820312C179.717 0.833333 180.004 0.839844 180.316 0.839844C180.954 0.839844 181.514 0.826823 181.996 0.800781C182.478 0.761719 182.94 0.722656 183.383 0.683594C183.826 0.644531 184.268 0.611979 184.711 0.585938C185.154 0.546875 185.648 0.527344 186.195 0.527344H187.504C187.686 0.527344 187.836 0.566406 187.953 0.644531C188.07 0.709635 188.161 0.748698 188.227 0.761719C188.279 0.904948 188.311 0.983073 188.324 0.996094C188.337 1.00911 188.344 1.06771 188.344 1.17188C188.344 1.3151 188.227 1.43229 187.992 1.52344C187.771 1.61458 187.51 1.69271 187.211 1.75781C186.924 1.8099 186.632 1.85547 186.332 1.89453C186.033 1.92057 185.818 1.95312 185.688 1.99219C185.479 2.03125 185.258 2.07031 185.023 2.10938C184.789 2.13542 184.574 2.1875 184.379 2.26562C184.184 2.33073 184.021 2.4349 183.891 2.57812C183.76 2.70833 183.695 2.89714 183.695 3.14453V26.3477C183.695 26.6211 183.793 26.8359 183.988 26.9922C184.197 27.1354 184.451 27.2461 184.75 27.3242C185.049 27.3893 185.375 27.4349 185.727 27.4609C186.091 27.487 186.423 27.5195 186.723 27.5586C187.022 27.5977 187.27 27.6628 187.465 27.7539C187.673 27.832 187.777 27.9622 187.777 28.1445C187.777 28.2878 187.738 28.3789 187.66 28.418C187.582 28.457 187.51 28.4896 187.445 28.5156C187.263 28.5677 187.042 28.6133 186.781 28.6523C186.521 28.6914 186.293 28.7109 186.098 28.7109C185.629 28.7109 185.199 28.6979 184.809 28.6719C184.418 28.6458 184.04 28.6198 183.676 28.5938C183.311 28.5677 182.947 28.5417 182.582 28.5156C182.217 28.4896 181.82 28.4766 181.391 28.4766C181.182 28.4766 180.889 28.4831 180.512 28.4961C180.147 28.5091 179.75 28.5286 179.32 28.5547C178.904 28.5677 178.487 28.5807 178.07 28.5938C177.654 28.6068 177.296 28.6133 176.996 28.6133H175.453C175.388 28.6133 175.297 28.5807 175.18 28.5156C175.062 28.4505 175.004 28.3464 175.004 28.2031C175.004 27.9427 175.115 27.7865 175.336 27.7344C175.622 27.6562 175.876 27.5977 176.098 27.5586C176.332 27.5065 176.573 27.4609 176.82 27.4219C177.068 27.3698 177.341 27.3177 177.641 27.2656C177.94 27.2135 178.311 27.1419 178.754 27.0508C178.975 26.9857 179.105 26.8424 179.145 26.6211C179.197 26.3997 179.223 26.1198 179.223 25.7812ZM221.086 1.54297C221.086 1.3737 221.164 1.26953 221.32 1.23047C221.464 1.19141 221.587 1.17188 221.691 1.17188C221.939 1.17188 222.264 1.17839 222.668 1.19141C223.085 1.20443 223.521 1.21745 223.977 1.23047C224.432 1.23047 224.888 1.23698 225.344 1.25C225.799 1.26302 226.203 1.26953 226.555 1.26953C227.049 1.26953 227.525 1.26302 227.98 1.25C228.449 1.23698 228.964 1.21094 229.523 1.17188C230.109 1.14583 230.663 1.10026 231.184 1.03516C231.717 0.970052 232.245 0.9375 232.766 0.9375C232.818 0.9375 232.896 0.94401 233 0.957031C233.104 0.957031 233.208 0.970052 233.312 0.996094C233.417 1.00911 233.501 1.04167 233.566 1.09375C233.645 1.14583 233.684 1.21745 233.684 1.30859C233.684 1.49089 233.579 1.6276 233.371 1.71875C233.163 1.79688 232.902 1.86198 232.59 1.91406C232.277 1.96615 231.939 2.02474 231.574 2.08984C231.21 2.14193 230.871 2.23307 230.559 2.36328C230.246 2.48047 229.986 2.65625 229.777 2.89062C229.569 3.125 229.465 3.44401 229.465 3.84766C229.465 4.14714 229.471 4.47266 229.484 4.82422C229.51 5.16276 229.582 5.46875 229.699 5.74219L235.5 20.4688C235.682 20.8984 235.819 21.1133 235.91 21.1133C236.053 21.1133 236.223 20.9245 236.418 20.5469C236.457 20.4557 236.548 20.2083 236.691 19.8047C236.848 19.388 237.036 18.8737 237.258 18.2617C237.492 17.6367 237.746 16.9401 238.02 16.1719C238.306 15.3906 238.592 14.5898 238.879 13.7695C239.178 12.9492 239.471 12.1289 239.758 11.3086C240.044 10.4883 240.305 9.72656 240.539 9.02344C240.786 8.30729 241.001 7.68229 241.184 7.14844C241.366 6.60156 241.49 6.19792 241.555 5.9375C241.62 5.61198 241.652 5.29948 241.652 5C241.652 4.76562 241.633 4.55078 241.594 4.35547C241.568 4.14714 241.509 3.96484 241.418 3.80859C241.249 3.50911 240.995 3.2487 240.656 3.02734C240.331 2.79297 240.025 2.60417 239.738 2.46094C239.517 2.35677 239.257 2.27214 238.957 2.20703C238.671 2.12891 238.397 2.04427 238.137 1.95312C237.876 1.86198 237.655 1.75781 237.473 1.64062C237.29 1.52344 237.199 1.36719 237.199 1.17188C237.199 1.0026 237.258 0.904948 237.375 0.878906C237.492 0.852865 237.603 0.839844 237.707 0.839844C238.15 0.839844 238.645 0.859375 239.191 0.898438C239.738 0.924479 240.311 0.957031 240.91 0.996094C241.509 1.03516 242.121 1.07422 242.746 1.11328C243.371 1.13932 243.977 1.15234 244.562 1.15234C244.888 1.15234 245.181 1.13932 245.441 1.11328C245.715 1.07422 245.969 1.03516 246.203 0.996094C246.438 0.957031 246.665 0.924479 246.887 0.898438C247.108 0.859375 247.349 0.839844 247.609 0.839844C247.688 0.839844 247.772 0.846354 247.863 0.859375C247.954 0.859375 248.046 0.872396 248.137 0.898438C248.228 0.924479 248.299 0.963542 248.352 1.01562C248.417 1.06771 248.449 1.14583 248.449 1.25C248.449 1.45833 248.371 1.58203 248.215 1.62109C247.967 1.6862 247.72 1.75781 247.473 1.83594C247.225 1.91406 246.991 1.99219 246.77 2.07031C246.561 2.14844 246.379 2.22656 246.223 2.30469C246.066 2.36979 245.962 2.42188 245.91 2.46094C245.767 2.52604 245.565 2.66276 245.305 2.87109C245.057 3.07943 244.823 3.33984 244.602 3.65234C244.471 3.83464 244.335 4.05599 244.191 4.31641C244.061 4.57682 243.892 4.9349 243.684 5.39062C243.475 5.83333 243.221 6.40625 242.922 7.10938C242.635 7.8125 242.271 8.69792 241.828 9.76562L234.66 27.3633C234.569 27.5716 234.484 27.7474 234.406 27.8906C234.328 28.0339 234.23 28.1055 234.113 28.1055C233.97 28.1055 233.853 28.0273 233.762 27.8711C233.671 27.7148 233.573 27.5 233.469 27.2266L225.598 6.30859C225.467 5.97005 225.324 5.61198 225.168 5.23438C225.012 4.84375 224.829 4.47266 224.621 4.12109C224.426 3.76953 224.204 3.45703 223.957 3.18359C223.71 2.89714 223.436 2.6888 223.137 2.55859C223.033 2.54557 222.863 2.51302 222.629 2.46094C222.408 2.40885 222.18 2.33724 221.945 2.24609C221.724 2.15495 221.522 2.05078 221.34 1.93359C221.171 1.81641 221.086 1.6862 221.086 1.54297ZM294.199 29.1211C292.298 29.1211 290.508 28.75 288.828 28.0078C287.161 27.2526 285.632 26.1458 284.238 24.6875C283.639 24.0755 283.092 23.3789 282.598 22.5977C282.103 21.8034 281.68 20.9245 281.328 19.9609C280.977 18.9974 280.703 17.9427 280.508 16.7969C280.312 15.638 280.215 14.3815 280.215 13.0273C280.215 12.0638 280.391 11.0807 280.742 10.0781C281.107 9.0625 281.602 8.09245 282.227 7.16797C282.852 6.23047 283.587 5.36458 284.434 4.57031C285.28 3.76302 286.191 3.07292 287.168 2.5C288.496 1.69271 289.818 1.13932 291.133 0.839844C292.461 0.527344 293.685 0.371094 294.805 0.371094C295.365 0.371094 295.951 0.416667 296.562 0.507812C297.174 0.598958 297.754 0.716146 298.301 0.859375C298.861 1.0026 299.368 1.15885 299.824 1.32812C300.293 1.4974 300.658 1.66016 300.918 1.81641C301.543 2.19401 302.181 2.66276 302.832 3.22266C303.483 3.78255 304.095 4.38802 304.668 5.03906C305.241 5.6901 305.755 6.36068 306.211 7.05078C306.68 7.72786 307.044 8.3724 307.305 8.98438C307.747 10 308.047 11.0156 308.203 12.0312C308.359 13.0469 308.438 14.1016 308.438 15.1953C308.438 16.3672 308.314 17.4674 308.066 18.4961C307.832 19.5117 307.487 20.4688 307.031 21.3672C306.576 22.2656 306.016 23.112 305.352 23.9062C304.701 24.6875 303.958 25.4362 303.125 26.1523C302.513 26.6602 301.888 27.1029 301.25 27.4805C300.612 27.8451 299.928 28.151 299.199 28.3984C298.483 28.6458 297.715 28.8281 296.895 28.9453C296.074 29.0625 295.176 29.1211 294.199 29.1211ZM285.312 15.0391C285.312 15.6641 285.345 16.3021 285.41 16.9531C285.475 17.5911 285.579 18.2292 285.723 18.8672C285.866 19.4922 286.048 20.0977 286.27 20.6836C286.504 21.2695 286.784 21.8164 287.109 22.3242C287.526 23.0143 287.988 23.6914 288.496 24.3555C289.017 25.0065 289.59 25.599 290.215 26.1328C290.853 26.6536 291.549 27.0768 292.305 27.4023C293.073 27.7148 293.906 27.8711 294.805 27.8711C295.651 27.8711 296.471 27.6693 297.266 27.2656C298.06 26.849 298.796 26.3086 299.473 25.6445C300.15 24.9674 300.755 24.2057 301.289 23.3594C301.836 22.513 302.279 21.6536 302.617 20.7812C302.656 20.651 302.734 20.4167 302.852 20.0781C302.982 19.7266 303.112 19.3034 303.242 18.8086C303.372 18.3138 303.483 17.7539 303.574 17.1289C303.678 16.5039 303.73 15.8398 303.73 15.1367C303.73 14.5117 303.678 13.8346 303.574 13.1055C303.483 12.3763 303.333 11.6276 303.125 10.8594C302.93 10.0781 302.682 9.29688 302.383 8.51562C302.083 7.73438 301.732 6.98568 301.328 6.26953C300.977 5.65755 300.566 5.05859 300.098 4.47266C299.629 3.8737 299.095 3.34635 298.496 2.89062C297.91 2.42188 297.259 2.05078 296.543 1.77734C295.827 1.49089 295.046 1.34766 294.199 1.34766C293.392 1.34766 292.624 1.51693 291.895 1.85547C291.165 2.19401 290.501 2.61719 289.902 3.125C289.303 3.61979 288.776 4.15365 288.32 4.72656C287.878 5.28646 287.52 5.80078 287.246 6.26953C287.038 6.63411 286.816 7.08984 286.582 7.63672C286.361 8.18359 286.152 8.82161 285.957 9.55078C285.775 10.2799 285.618 11.1068 285.488 12.0312C285.371 12.9427 285.312 13.9453 285.312 15.0391Z" fill="white"/>
</svg>
