<svg xmlns="http://www.w3.org/2000/svg" viewBox="0 0 500 500"><g id="freepik--Floor--inject-1--inject-8"><path id="freepik--floor--inject-1--inject-8" d="M99.67,433.12c82.5,44.74,216.26,44.75,298.76,0s82.5-117.31,0-162.06-216.26-44.75-298.76,0S17.16,388.37,99.67,433.12Z" style="fill:#f0f0f0;opacity:0.7000000000000001"></path></g><g id="freepik--Pin--inject-1--inject-8"><g id="freepik--pin--inject-1--inject-8"><path d="M429.3,169.32h0l-.9-.52-27.94-16a38.52,38.52,0,0,0-21.82-6.39c-9.77,0-19.63,3.54-31.24,10-40.57,22.48-75.23,87.3-75.23,129.86V298c0,51.58,67.84,114.54,67.84,114.54l28.13,16.25a.12.12,0,0,0,.12.05c-.94-1.11,29.89-46.09,59-133.83C459.4,197.85,429.9,169.88,429.3,169.32ZM381.82,323.54c-23,13.27-42.23,6.32-47.68-15.09C323.61,307,316,298.9,313.65,285.6c-2.95-43,19.87-77.19,52.55-91.07,14-5.09,25.68-1.46,31.94,9.06,19.2-3.3,32.94,9.86,32.94,34.64C431.08,269.63,409,307.85,381.82,323.54Z" style="fill:#455a64"></path><path d="M431.08,238.23c0,31.4-22.05,69.62-49.26,85.31-23,13.27-42.23,6.32-47.68-15.09,6.91,1,15.07-.85,23.84-5.92,24.92-14.37,45.1-49.35,45.1-78.09,0-8.54-1.78-15.57-4.94-20.85C417.34,200.29,431.08,213.45,431.08,238.23Z" style="fill:#263238"></path><polygon points="343.44 305.45 359.07 314.48 359.07 284.2 343.44 275.17 343.44 305.45" style="fill:#0F172A"></polygon><polygon points="343.44 305.45 359.07 314.48 359.07 284.2 343.44 275.17 343.44 305.45" style="opacity:0.2"></polygon><polygon points="418.03 250.16 381.8 233.18 345.57 292 359.07 284.2 359.07 314.48 376.19 304.6 376.19 284.79 387.4 278.32 387.4 298.12 404.54 288.22 404.54 257.94 418.03 250.16" style="fill:#0F172A"></polygon><polygon points="366.16 224.15 381.8 233.18 345.57 292 329.93 282.97 366.16 224.15" style="fill:#0F172A"></polygon><polygon points="366.16 224.15 381.8 233.18 345.57 292 329.93 282.97 366.16 224.15" style="opacity:0.1"></polygon><polygon points="366.16 224.15 381.8 233.18 418.03 250.16 402.39 241.13 366.16 224.15" style="fill:#0F172A"></polygon><polygon points="366.16 224.15 381.8 233.18 418.03 250.16 402.39 241.13 366.16 224.15" style="fill:#fff;opacity:0.4"></polygon><polygon points="376.19 304.6 387.4 298.12 387.4 278.32 376.19 284.79 376.19 304.6" style="fill:#0F172A"></polygon><polygon points="376.19 304.6 387.4 298.12 387.4 278.32 376.19 284.79 376.19 304.6" style="opacity:0.2"></polygon><path d="M429.3,169.32h0l-.9-.52c-13.56-7.62-31.68-6.6-51.59,4.88-30,17.35-56,53.79-68.29,92-4.88,15.15-6.94,23.17-6.94,37.82v11.77c0,39.75,44.32,93.22,65.05,112.31a9.35,9.35,0,0,0,1.51,1.14.12.12,0,0,0,.12.05,10.18,10.18,0,0,0,14.5-4.2C400.62,388,452.7,277.75,452.7,235V223.27C452.7,196.77,443.74,178,429.3,169.32ZM334.14,308.45c-.28-1.09-.54-2.23-.74-3.4a53.85,53.85,0,0,1-.84-9.94c0-31.4,22-69.61,49.26-85.3a58.84,58.84,0,0,1,9-4.24,42.45,42.45,0,0,1,7.33-2c19.2-3.3,32.94,9.86,32.94,34.64,0,31.4-22.05,69.62-49.26,85.31C358.85,336.81,339.59,329.86,334.14,308.45Z" style="fill:#37474f"></path></g></g></svg>