<svg width="90" height="91" viewBox="0 0 90 91" fill="none" xmlns="http://www.w3.org/2000/svg">
<rect width="90" height="91" fill="white"/>
<path d="M4 0H19C23.125 0 27.2708 0.0416667 31.4375 0.125C35.6458 0.208333 39.6667 0.375 43.5 0.625C47.375 0.833333 50.9375 1.125 54.1875 1.5C57.4375 1.875 60.1667 2.35417 62.375 2.9375C65.625 3.89583 68.6458 5.39583 71.4375 7.4375C74.2708 9.47917 76.8958 11.875 79.3125 14.625C80.2708 15.75 81.3333 17.2708 82.5 19.1875C83.7083 21.0625 84.8333 23.2292 85.875 25.6875C86.9583 28.1458 87.8542 30.8125 88.5625 33.6875C89.2708 36.5625 89.625 39.5417 89.625 42.625C89.625 49.9167 88.25 56.5 85.5 62.375C82.7917 68.2083 78.8542 73.5833 73.6875 78.5C73.4375 78.625 73.0625 78.875 72.5625 79.25C72.1042 79.625 71.6042 80.0417 71.0625 80.5C70.5208 80.9167 70 81.3125 69.5 81.6875C69.0417 82.0625 68.7083 82.3333 68.5 82.5C67.5417 83.2917 66.3542 84.0417 64.9375 84.75C63.5625 85.4583 62.0417 86.1042 60.375 86.6875C58.7083 87.2708 56.9583 87.8125 55.125 88.3125C53.3333 88.8125 51.5625 89.2292 49.8125 89.5625C48.0625 89.8958 46.4167 90.1458 44.875 90.3125C43.3333 90.5208 42 90.625 40.875 90.625C39.25 90.625 37.5833 90.5417 35.875 90.375C34.1667 90.25 32.1875 90.1875 29.9375 90.1875H2C0.666667 90.1875 0 89.75 0 88.875C0 88.375 0.4375 87.9792 1.3125 87.6875C2.1875 87.3542 3.25 87.1042 4.5 86.9375C5.75 86.7292 7.08333 86.5625 8.5 86.4375C9.91667 86.2708 11.1875 86.0833 12.3125 85.875C13.1458 85.7083 13.7708 85.4792 14.1875 85.1875C14.6458 84.8542 14.9583 84.5 15.125 84.125C15.3333 83.25 15.4583 82.5625 15.5 82.0625C15.5417 81.5208 15.5625 80.9167 15.5625 80.25V4.25C15.4375 3.95833 14.8958 3.6875 13.9375 3.4375C13.0208 3.1875 11.8958 2.95833 10.5625 2.75C9.27083 2.54167 7.875 2.33333 6.375 2.125C4.875 1.91667 3.5 1.70833 2.25 1.5C1.58333 1.41667 1.25 1.20833 1.25 0.875C1.25 0.791667 1.47917 0.583333 1.9375 0.25C2.10417 0.166667 2.33333 0.104167 2.625 0.0625C2.95833 0.0208333 3.41667 0 4 0ZM29.9375 4.5625V39.6875C29.9375 42.2292 29.8542 44.6875 29.6875 47.0625C29.5625 49.3958 29.4167 51.6875 29.25 53.9375C29.125 56.1875 28.9792 58.4375 28.8125 60.6875C28.6875 62.8958 28.625 65.1667 28.625 67.5C28.625 72.75 28.9167 76.7917 29.5 79.625C30.125 82.4167 30.9792 84.4167 32.0625 85.625C32.5625 86.2917 33.2708 86.7292 34.1875 86.9375C35.1458 87.1042 36 87.1875 36.75 87.1875C40 87.1875 43.0833 86.7708 46 85.9375C48.9167 85.1042 51.6042 83.9583 54.0625 82.5C56.5625 81.0417 58.7917 79.3333 60.75 77.375C62.75 75.4167 64.4375 73.3125 65.8125 71.0625C68.6875 66.4375 70.8333 61.7917 72.25 57.125C73.6667 52.4167 74.375 47.9375 74.375 43.6875C74.375 41.3542 74.1875 39.125 73.8125 37C73.4792 34.875 73.0625 32.9167 72.5625 31.125C72.0625 29.3333 71.5208 27.75 70.9375 26.375C70.3542 25 69.8333 23.9167 69.375 23.125C68.75 22 67.875 20.6458 66.75 19.0625C65.625 17.4375 64.1667 15.7708 62.375 14.0625C60.625 12.3125 58.4792 10.625 55.9375 9C53.3958 7.33333 50.375 5.89583 46.875 4.6875C44.7083 3.89583 42.5417 3.35417 40.375 3.0625C38.2083 2.77083 35.8333 2.625 33.25 2.625C33 2.625 32.6667 2.64583 32.25 2.6875C31.875 2.72917 31.5208 2.8125 31.1875 2.9375C30.8542 3.0625 30.5625 3.27083 30.3125 3.5625C30.0625 3.8125 29.9375 4.14583 29.9375 4.5625Z" fill="#0F172A"/>
</svg>
